<?xml version="1.0" encoding="utf-8"?>
<!-- Generator: Adobe Illustrator 25.4.1, SVG Export Plug-In . SVG Version: 6.00 Build 0)  -->
<svg version="1.1" id="Capa_1" xmlns="http://www.w3.org/2000/svg" xmlns:xlink="http://www.w3.org/1999/xlink" x="0px" y="0px"
	 viewBox="0 0 13 12" style="enable-background:new 0 0 13 12;" xml:space="preserve">
<style type="text/css">
	.st0{fill:#1A73E8;}
</style>
<path class="st0" d="M12.4,3.3H0.6c-0.3,0-0.5-0.2-0.5-0.5s0.2-0.5,0.5-0.5h11.8c0.3,0,0.5,0.2,0.5,0.5S12.7,3.3,12.4,3.3z"/>
<path class="st0" d="M12.4,6.8H0.6c-0.3,0-0.5-0.2-0.5-0.5s0.2-0.5,0.5-0.5h11.8c0.3,0,0.5,0.2,0.5,0.5S12.7,6.8,12.4,6.8z"/>
<path class="st0" d="M12.4,10.3H0.6c-0.3,0-0.5-0.2-0.5-0.5s0.2-0.5,0.5-0.5h11.8c0.3,0,0.5,0.2,0.5,0.5S12.7,10.3,12.4,10.3z"/>
</svg>
